<?xml version="1.0" encoding="UTF-8"?>
<svg xmlns="http://www.w3.org/2000/svg" xmlns:xlink="http://www.w3.org/1999/xlink" width="40px" height="40px" viewBox="0 0 40 40" version="1.1">
<g id="surface1">
<path style="fill-rule:nonzero;fill:rgb(67.45098%,22.352941%,22.352941%);fill-opacity:1;stroke-width:10;stroke-linecap:butt;stroke-linejoin:round;stroke:rgb(50.196078%,16.862745%,16.862745%);stroke-opacity:1;stroke-miterlimit:4;" d="M 400.696878 172.033423 L 321.056016 334.320462 L 290.899229 302.298307 L 283.178677 361.731012 L 107.419533 311.366069 L 222.916919 429.661507 L 190.583869 445.828032 L 241.726049 472.513161 L 201.050657 564.175285 L 276.079914 546.091576 L 268.722073 692.678433 L 340.849646 558.993707 L 403.598562 615.317465 L 409.661009 537.956498 L 554.693391 589.979546 L 448.263769 484.94895 L 584.021126 436.034848 L 435.82798 400.696483 L 456.295215 359.91746 L 405.256667 368.259801 Z M 400.696878 172.033423 " transform="matrix(0.0753873,0,0,0.0753873,-6.062908,-12.594128)"/>
<path style="fill-rule:nonzero;fill:rgb(100%,80%,0%);fill-opacity:1;stroke-width:3.729221;stroke-linecap:butt;stroke-linejoin:round;stroke:rgb(79.215686%,63.529412%,0.784314%);stroke-opacity:1;stroke-miterlimit:4;" d="M 400.75274 172.072242 L 321.023653 334.337238 L 290.88677 302.264178 L 283.201303 361.732904 L 107.39073 311.339863 L 222.980068 429.67762 L 190.623944 445.864101 L 241.771761 472.533809 L 201.031582 564.116556 L 276.070068 546.062991 L 268.730893 692.642033 L 340.858207 558.981557 L 403.600796 615.33101 L 409.675883 537.966829 L 554.717925 590.023354 L 448.254808 484.970103 L 584.049684 436.063821 L 435.848802 400.667944 L 456.323788 359.914365 L 405.245803 368.278473 Z M 400.75274 172.072242 " transform="matrix(0.0403673,-0.00226102,0.00226102,0.0403673,4.886761,3.772521)"/>
</g>
</svg>
